<svg xmlns="http://www.w3.org/2000/svg" width="24" height="24" viewBox="0 0 24 24" fill="none">
  <g stroke="#526277" stroke-width="1.35" stroke-linecap="round" stroke-linejoin="round">
    <path d="M12 3.6C13.82 3.6 15.28 5.07 15.28 6.88V7.2L15.56 7.04C17.13 6.13 19.13 6.67 20.04 8.24C20.95 9.81 20.41 11.81 18.84 12.72L18.56 12.88L18.84 13.04C20.41 13.95 20.95 15.95 20.04 17.52C19.13 19.09 17.13 19.63 15.56 18.72L15.28 18.56V18.88C15.28 20.69 13.82 22.16 12 22.16C10.18 22.16 8.72 20.69 8.72 18.88V18.56L8.44 18.72C6.87 19.63 4.87 19.09 3.96 17.52C3.05 15.95 3.59 13.95 5.16 13.04L5.44 12.88L5.16 12.72C3.59 11.81 3.05 9.81 3.96 8.24C4.87 6.67 6.87 6.13 8.44 7.04L8.72 7.2V6.88C8.72 5.07 10.18 3.6 12 3.6Z"/>
    <path d="M8.72 7.2L12 9.1L15.28 7.2"/>
    <path d="M15.28 7.2V11L18.56 12.88"/>
    <path d="M18.56 12.88L15.28 14.76V18.56"/>
    <path d="M15.28 18.56L12 16.66L8.72 18.56"/>
    <path d="M8.72 18.56V14.76L5.44 12.88"/>
    <path d="M5.44 12.88L8.72 11V7.2"/>
    <path d="M8.72 11L12 9.1L15.28 11V14.76L12 16.66L8.72 14.76V11Z"/>
  </g>
</svg>
